<?xml version="1.0" standalone="no"?>
<!DOCTYPE svg PUBLIC "-//W3C//DTD SVG 20010904//EN"
 "http://www.w3.org/TR/2001/REC-SVG-20010904/DTD/svg10.dtd">
<svg version="1.0" xmlns="http://www.w3.org/2000/svg"
 width="16.000000pt" height="16.000000pt" viewBox="0 0 16.000000 16.000000"
 preserveAspectRatio="xMidYMid meet">
<metadata>
Created by potrace 1.11, written by Peter Selinger 2001-2013
</metadata>
<g transform="translate(0.000000,16.000000) scale(0.006015,-0.006015)"
fill="#000000" stroke="none">
<path d="M364 2604 c-35 -80 -72 -214 -80 -290 -4 -35 -11 -67 -15 -70 -5 -3
-9 -20 -9 -37 0 -18 -3 -42 -6 -54 -7 -25 -40 -37 -48 -17 -3 8 -18 14 -34 14
-38 0 -52 -31 -52 -116 0 -74 12 -104 40 -104 15 0 20 -7 20 -25 0 -21 -5 -25
-29 -25 -21 0 -39 -12 -70 -45 -43 -46 -51 -78 -30 -117 6 -11 13 -48 15 -82
3 -33 11 -89 20 -125 10 -44 11 -68 4 -75 -16 -16 -12 -51 9 -70 11 -10 21
-28 23 -39 2 -12 12 -24 24 -27 11 -3 36 -22 54 -43 31 -36 35 -37 77 -31 41
6 47 4 74 -26 l29 -32 6 -231 c2 -128 12 -331 20 -452 8 -121 18 -278 22 -350
l7 -130 188 -3 c103 -1 187 0 187 3 0 3 -13 65 -29 138 -55 244 -101 478 -101
508 0 36 9 37 42 1 21 -23 30 -55 61 -232 20 -113 41 -249 48 -302 7 -54 15
-102 19 -108 4 -6 28 -10 57 -8 l49 3 -63 265 c-34 146 -63 269 -63 273 0 11
201 -164 259 -226 51 -53 101 -76 231 -102 90 -19 242 -15 325 7 56 14 109 73
126 138 11 43 21 57 60 86 26 19 54 46 64 60 9 14 19 24 21 21 10 -9 54 -269
48 -280 -4 -7 -27 -45 -53 -85 -48 -77 -46 -76 -211 -149 -23 -11 -20 -12 26
-12 39 -1 65 6 109 30 41 22 56 26 51 15 -3 -9 -9 -23 -12 -31 -5 -12 2 -15
34 -15 35 0 41 4 50 28 6 15 33 88 61 162 29 74 54 141 57 149 11 31 32 -15
42 -92 7 -56 16 -82 29 -92 34 -25 144 -77 250 -116 96 -36 113 -40 187 -37
l81 3 -204 75 c-157 58 -212 83 -242 110 -39 35 -39 36 -46 130 -5 79 -10 98
-29 117 l-23 22 34 111 c44 140 61 234 80 423 28 284 22 257 59 257 45 0 116
48 123 83 4 19 12 27 27 27 30 0 46 18 46 51 0 19 -6 30 -20 34 -25 8 -28 64
-5 99 14 20 14 37 5 110 -12 94 -18 116 -31 116 -5 0 -9 9 -9 19 0 28 -38 51
-82 51 l-38 0 0 58 c1 47 3 54 13 41 17 -22 38 -28 65 -18 21 8 22 14 22 102
0 59 -4 97 -12 105 -18 18 -49 14 -73 -8 l-22 -21 -7 63 c-3 36 -12 65 -20 70
-9 5 -16 36 -21 85 -10 116 -30 204 -59 259 -43 82 -46 84 -120 84 l-66 0 33
-43 c77 -101 107 -219 127 -497 16 -228 13 -316 -22 -605 -26 -220 -35 -273
-49 -285 -12 -10 -46 -113 -95 -285 -42 -148 -87 -291 -101 -316 -29 -53 -109
-137 -100 -104 35 125 54 343 36 424 -15 70 -42 95 -138 125 -75 24 -76 24
-113 5 -49 -25 -100 -25 -123 1 -32 36 -99 22 -251 -50 -98 -47 -125 -82 -154
-194 -16 -63 -20 -112 -20 -233 l0 -155 -29 24 c-42 33 -56 103 -55 268 0 127
2 141 34 230 25 71 35 117 38 181 6 118 -6 148 -78 204 -109 84 -200 204 -239
316 -28 79 -49 190 -62 327 -15 161 -6 256 32 330 21 41 34 85 43 154 11 77
19 105 40 132 14 19 26 37 26 40 0 3 -76 6 -169 6 l-169 0 -22 -35 c-26 -43
-36 -46 -15 -5 19 37 19 40 -6 40 -15 0 -26 -14 -45 -56z m-64 -383 c0 -10 -7
-85 -15 -167 -16 -153 -28 -204 -50 -204 -7 0 -33 -3 -59 -6 -38 -6 -46 -4
-46 10 0 13 10 16 50 16 33 0 50 4 50 13 0 6 3 29 6 50 5 30 4 37 -10 37 -12
0 -16 11 -18 53 l-1 52 -6 -50 c-5 -41 -7 -45 -13 -25 -3 14 -3 43 2 65 4 22
8 36 9 32 0 -5 8 -1 17 7 21 22 32 20 36 -6 2 -13 7 11 12 52 4 41 10 78 12
82 9 15 24 8 24 -11z m1979 -191 c7 -96 14 -183 17 -192 3 -11 15 -18 32 -18
27 0 27 -1 -6 -17 -19 -9 -37 -12 -41 -7 -9 9 -27 423 -18 414 3 -3 10 -84 16
-180z m-2104 15 c0 -61 -3 -85 -12 -85 -14 0 -19 123 -7 154 13 34 19 13 19
-69z m2207 53 c3 -7 2 -47 -2 -88 l-6 -75 -5 88 c-4 79 1 107 13 75z m-62 -24
c0 -8 4 -13 9 -10 10 7 21 -27 21 -66 0 -21 -5 -28 -19 -28 -10 0 -22 7 -25
16 -10 26 -7 104 4 104 6 0 10 -7 10 -16z m-2001 -131 c1 -13 -3 -23 -9 -23
-6 0 -10 27 -9 63 1 59 2 60 10 22 4 -22 8 -50 8 -62z m52 -80 l33 -28 -50 -6
c-27 -3 -51 -5 -52 -3 -10 7 11 64 23 64 7 0 28 -12 46 -27z m-257 -61 c-4 -9
-6 -25 -5 -36 3 -17 -13 -35 -31 -36 -4 0 -10 9 -13 20 -5 15 2 32 21 57 27
35 44 32 28 -5z m125 19 c10 -7 16 -31 17 -76 3 -74 14 -103 14 -36 0 26 4 40
10 36 36 -23 112 -254 125 -382 8 -82 5 -86 -76 -98 l-46 -7 -6 89 c-3 48 -14
121 -25 161 -13 53 -15 72 -6 72 6 0 15 7 18 16 9 22 7 64 -2 62 -10 -4 -58
34 -65 52 -3 10 -6 6 -7 -10 l-1 -25 -21 25 -20 25 22 3 c20 3 22 8 18 53 -5
45 -3 49 16 49 12 0 28 -4 35 -9z m205 -32 c52 -45 114 -211 127 -338 12 -115
6 -156 -25 -176 -30 -20 -86 -36 -86 -25 0 4 16 11 35 14 57 11 69 40 62 154
-4 73 -13 119 -37 187 -70 195 -107 228 -215 190 -49 -18 -60 -10 -14 9 58 26
113 20 153 -15z m1816 -1 c0 -5 -4 -8 -10 -8 -5 0 -10 10 -10 23 0 18 2 19 10
7 5 -8 10 -18 10 -22z m118 14 c-13 -6 -8 -11 23 -26 45 -22 51 -37 53 -139 1
-66 -1 -72 -19 -72 -12 0 -21 8 -24 20 -3 18 -2 18 15 5 18 -14 18 -14 2 6
-11 12 -21 48 -25 90 -8 65 -10 70 -40 84 -37 17 -41 26 -15 33 29 8 50 7 30
-1z m17 -135 c3 -45 6 -87 5 -92 -4 -20 0 -35 11 -35 5 0 7 4 4 10 -3 6 1 7
10 3 9 -3 13 -9 8 -12 -6 -3 -15 -39 -22 -79 -19 -119 -69 -192 -131 -192 -49
0 -53 19 -20 96 24 57 31 94 41 218 12 134 15 149 33 156 49 20 53 15 61 -73z
m-1768 -125 c23 -86 26 -126 33 -342 8 -276 17 -320 92 -460 l40 -75 -52 51
c-49 49 -54 59 -97 190 -38 120 -43 131 -39 84 3 -33 2 -49 -3 -40 -13 23 -39
157 -46 237 l-6 73 26 -10 c23 -9 27 -7 35 16 15 38 12 87 -9 201 -11 56 -23
131 -26 165 -6 62 -6 63 10 35 9 -16 28 -72 42 -125z m-378 104 c20 -24 9 -51
-19 -51 -22 0 -25 4 -27 43 -2 37 0 41 16 33 10 -6 23 -17 30 -25z m-56 -214
c-2 -7 1 -12 7 -12 5 0 8 -10 6 -22 -4 -28 -35 -38 -34 -11 1 10 -2 29 -6 41
-7 20 -5 23 11 20 10 -2 17 -10 16 -16z m-43 -12 c12 -22 -2 -60 -22 -60 -7 0
-7 4 0 13 5 7 6 21 1 32 -11 28 -11 35 1 35 5 0 14 -9 20 -20z m2330 -5 c0
-13 -29 -29 -37 -21 -3 2 0 14 7 25 11 22 30 20 30 -4z m-2370 -20 c0 -8 -4
-15 -10 -15 -5 0 -10 7 -10 15 0 8 5 15 10 15 6 0 10 -7 10 -15z m380 -164 c0
-12 -20 -25 -27 -18 -7 7 6 27 18 27 5 0 9 -4 9 -9z m1680 -16 c0 -55 -31
-326 -50 -430 -25 -140 -76 -316 -97 -332 -30 -23 -42 -13 -62 53 -20 66 -20
66 1 112 31 73 138 531 138 592 0 16 4 20 15 16 8 -3 15 -1 15 4 0 6 9 10 20
10 15 0 20 -7 20 -25z m-1626 -465 c20 -234 38 -449 42 -477 l5 -53 -40 0
c-26 0 -41 5 -41 13 0 6 -7 91 -16 187 -8 96 -18 304 -21 462 -5 274 -5 286
13 290 11 2 20 4 21 3 1 0 18 -192 37 -425z m868 148 c67 -22 70 -22 133 -5
64 17 66 17 115 -4 50 -22 90 -63 90 -93 0 -9 -19 -30 -42 -47 -41 -29 -46
-31 -103 -24 -33 4 -123 8 -200 9 -114 1 -149 5 -190 22 -54 21 -65 41 -44 81
21 40 86 72 163 82 5 0 40 -9 78 -21z"/>
<path d="M242 2030 c0 -19 2 -27 5 -17 2 9 2 25 0 35 -3 9 -5 1 -5 -18z"/>
<path d="M1254 844 c-16 -8 -32 -18 -36 -22 -4 -4 78 -5 182 -4 151 3 200 1
243 -12 64 -19 67 -19 67 -8 0 5 -19 18 -42 28 -37 17 -62 19 -200 15 -103 -2
-163 0 -171 7 -9 8 -21 7 -43 -4z"/>
<path d="M973 1965 c-18 -7 -58 -31 -90 -53 -32 -22 -77 -49 -100 -61 -49 -25
-56 -53 -23 -89 33 -35 108 -33 208 5 99 38 196 37 280 -1 70 -33 125 -86 115
-113 -3 -10 -17 -30 -31 -45 -51 -55 5 -39 70 21 32 28 45 79 28 110 -8 17 -8
26 4 43 13 18 13 25 2 47 -32 61 -88 85 -249 106 -59 8 -120 21 -137 30 -35
18 -36 18 -77 0z"/>
<path d="M1926 1895 c-44 -13 -91 -33 -105 -44 -14 -12 -52 -40 -83 -64 -64
-47 -88 -91 -90 -164 0 -31 5 -50 17 -61 17 -16 17 -16 10 3 -17 43 -17 67 -1
109 17 45 34 57 101 72 17 4 59 20 93 36 82 36 125 36 183 0 24 -15 49 -31 56
-35 17 -10 33 52 21 76 -20 40 -81 97 -102 96 -11 0 -57 -11 -100 -24z"/>
<path d="M1598 1851 c-3 -40 -11 -67 -23 -81 -18 -20 -18 -20 8 -20 35 0 50
31 45 92 -8 75 -25 81 -30 9z"/>
<path d="M1065 1749 c-117 -27 -145 -39 -145 -62 0 -12 7 -32 15 -44 15 -21
20 -22 138 -16 143 7 177 19 177 63 0 33 2 35 33 19 l22 -11 -20 21 c-12 12
-43 25 -74 31 -62 12 -91 11 -146 -1z m100 -19 c-3 -5 1 -10 9 -10 9 0 16 -7
16 -15 0 -18 -11 -19 -29 -2 -11 10 -13 6 -8 -20 6 -33 6 -33 -34 -33 -41 0
-139 36 -139 50 0 9 47 26 90 33 51 9 101 7 95 -3z"/>
<path d="M1786 1715 c-73 -30 -100 -54 -31 -27 28 10 68 21 90 24 l40 5 -3
-38 c-5 -45 10 -69 44 -69 26 0 44 26 44 64 0 29 8 32 34 13 24 -17 14 -66
-20 -106 -16 -20 -21 -32 -14 -36 12 -8 60 32 60 49 0 5 12 22 26 37 15 15 24
34 21 42 -3 8 -29 26 -58 41 -70 35 -151 35 -233 1z m132 -33 c2 -7 -3 -12
-12 -12 -9 0 -16 7 -16 16 0 17 22 14 28 -4z"/>
<path d="M805 1690 c-7 -12 19 -12 55 0 22 7 21 8 -12 9 -20 1 -40 -3 -43 -9z"/>
<path d="M860 1659 c-17 -31 -7 -33 20 -4 19 20 20 25 7 25 -9 0 -21 -9 -27
-21z"/>
<path d="M1626 1440 c4 -25 22 -94 41 -155 29 -89 33 -113 23 -128 -16 -27 1
-40 28 -21 27 19 28 37 3 78 -10 17 -33 76 -51 131 -44 134 -51 149 -44 95z"/>
<path d="M1400 1362 c0 -6 -26 -30 -57 -54 -88 -64 -123 -100 -123 -124 0 -24
5 -27 92 -44 58 -11 93 -6 67 11 -7 4 -10 11 -6 15 6 7 34 1 125 -28 68 -20
39 14 -38 46 -31 12 -40 12 -79 -1 -38 -13 -46 -13 -58 0 -12 12 -8 21 32 68
59 67 73 95 57 111 -9 9 -12 9 -12 0z"/>
<path d="M1607 1154 c-24 -20 -25 -24 -9 -24 21 0 58 35 45 43 -4 3 -21 -6
-36 -19z"/>
<path d="M2080 20 c-18 -14 -21 -20 -9 -20 9 0 24 9 34 20 23 26 8 26 -25 0z"/>
</g>
</svg>
